#tb 0: 1/25
#media_type 0: video
#codec_id 0: rawvideo
#dimensions 0: 1920x1080
#sar 0: 0/1
0,          0,          0,        1,  6220800, 0x97b16b01
0,          1,          1,        1,  6220800, 0xfe3a7406
0,          2,          2,        1,  6220800, 0xf31fdecb
0,          3,          3,        1,  6220800, 0x95de3346
0,          4,          4,        1,  6220800, 0x5d72f5f6
0,          5,          5,        1,  6220800, 0xfa859a5d
0,          6,          6,        1,  6220800, 0xf793e6cd
0,          7,          7,        1,  6220800, 0x7d6bf86f
0,          8,          8,        1,  6220800, 0x28d1f4a3
0,          9,          9,        1,  6220800, 0xd8243d77
0,         10,         10,        1,  6220800, 0x505b879e
0,         11,         11,        1,  6220800, 0xc19bbe15
0,         12,         12,        1,  6220800, 0x73ff3420
0,         13,         13,        1,  6220800, 0x4bc48472
0,         14,         14,        1,  6220800, 0x978a5483
0,         15,         15,        1,  6220800, 0xf6086f2f
0,         16,         16,        1,  6220800, 0x44b63088
0,         17,         17,        1,  6220800, 0x3ae4b369
0,         18,         18,        1,  6220800, 0x60295c88
0,         19,         19,        1,  6220800, 0xfb7034a4
0,         20,         20,        1,  6220800, 0xe4681095
0,         21,         21,        1,  6220800, 0x2fcc7e10
0,         22,         22,        1,  6220800, 0xd3df0958
0,         23,         23,        1,  6220800, 0xd9e05374
0,         24,         24,        1,  6220800, 0x4293618e
0,         25,         25,        1,  6220800, 0xb1161c45
0,         26,         26,        1,  6220800, 0xaf9328ba
0,         27,         27,        1,  6220800, 0xd172d37d
0,         28,         28,        1,  6220800, 0x3e5e4a6e
0,         29,         29,        1,  6220800, 0xe5a6bda4
0,         30,         30,        1,  6220800, 0xddd05822
0,         31,         31,        1,  6220800, 0xfe61eb2f
0,         32,         32,        1,  6220800, 0xb1f15430
0,         33,         33,        1,  6220800, 0x9b886c01
0,         34,         34,        1,  6220800, 0x994f26f7
0,         35,         35,        1,  6220800, 0x9cbec54f
0,         36,         36,        1,  6220800, 0x67e17b38
0,         37,         37,        1,  6220800, 0xa4b3040f
0,         38,         38,        1,  6220800, 0x121e13bf
0,         39,         39,        1,  6220800, 0xfe05ba04
0,         40,         40,        1,  6220800, 0xb1c5e211
0,         41,         41,        1,  6220800, 0x96d14570
0,         42,         42,        1,  6220800, 0xf1508720
0,         43,         43,        1,  6220800, 0xc9d9be86
0,         44,         44,        1,  6220800, 0x8cfa95f6
0,         45,         45,        1,  6220800, 0x93ce4d64
0,         46,         46,        1,  6220800, 0x96d6b69c
0,         47,         47,        1,  6220800, 0x81b82727
0,         48,         48,        1,  6220800, 0x4a40e277
0,         49,         49,        1,  6220800, 0x2fc19af8
0,         50,         50,        1,  6220800, 0x53a30bdc
0,         51,         51,        1,  6220800, 0x04c48eb7
0,         52,         52,        1,  6220800, 0x41ede009
0,         53,         53,        1,  6220800, 0xce9be6e8
0,         54,         54,        1,  6220800, 0xe6de7224
0,         55,         55,        1,  6220800, 0xfaff9d2e
0,         56,         56,        1,  6220800, 0x806d2b0f
0,         57,         57,        1,  6220800, 0x49f67aea
0,         58,         58,        1,  6220800, 0xb5983a40
0,         59,         59,        1,  6220800, 0xe86f4951
